<?xml version="1.0" standalone="no"?><!DOCTYPE svg PUBLIC "-//W3C//DTD SVG 1.1//EN" "http://www.w3.org/Graphics/SVG/1.1/DTD/svg11.dtd"><svg t="1754410736250" class="icon" viewBox="0 0 1024 1024" version="1.1" xmlns="http://www.w3.org/2000/svg" p-id="19309" xmlns:xlink="http://www.w3.org/1999/xlink" width="200" height="200"><path d="M677.8368 780.6976H356.4544a31.3856 31.3856 0 0 1-31.3856-31.3344V506.88a31.488 31.488 0 0 1-36.3008-5.8368L207.616 419.84a31.3856 31.3856 0 0 1 0-44.3392l132.4544-132.1984H435.2a31.1296 31.1296 0 0 1 30.0032 22.528 54.016 54.016 0 0 0 103.5776 0 31.0784 31.0784 0 0 1 30.0032-22.528h95.232l132.4544 132.4032a31.4368 31.4368 0 0 1 0 44.3392L745.472 501.1968a31.1808 31.1808 0 0 1-22.1696 9.216 31.6928 31.6928 0 0 1-14.1312-3.328v242.2784a31.3344 31.3344 0 0 1-31.3344 31.3344z m-301.568-51.2h281.6V461.3632A31.3344 31.3344 0 0 1 711.68 439.1936l11.8272 11.776 53.0944-53.0944-103.424-103.3728h-60.4672a105.1648 105.1648 0 0 1-191.1296 0H361.2672l-103.424 103.3728 53.0944 53.0944L322.56 439.1424a31.3344 31.3344 0 0 1 53.7088 22.1696z m222.6688-435.2z" p-id="19310" fill="#9CA3AF"></path><path d="M888.32 1008.64h-742.4A125.5936 125.5936 0 0 1 20.48 883.2v-742.4A125.5936 125.5936 0 0 1 145.92 15.36h742.4A125.5936 125.5936 0 0 1 1013.76 140.8v742.4a125.5936 125.5936 0 0 1-125.44 125.44zM145.92 66.56A74.3424 74.3424 0 0 0 71.68 140.8v742.4A74.3424 74.3424 0 0 0 145.92 957.44h742.4a74.3424 74.3424 0 0 0 74.24-74.24v-742.4A74.3424 74.3424 0 0 0 888.32 66.56z" p-id="19311" fill="#9CA3AF"></path></svg>