<?xml version="1.0" standalone="no"?><!DOCTYPE svg PUBLIC "-//W3C//DTD SVG 1.1//EN" "http://www.w3.org/Graphics/SVG/1.1/DTD/svg11.dtd"><svg t="1756788043900" class="icon" viewBox="0 0 1024 1024" version="1.1" xmlns="http://www.w3.org/2000/svg" p-id="2529" xmlns:xlink="http://www.w3.org/1999/xlink" width="200" height="200"><path d="M832 80a112 112 0 0 1 111.616 102.784L944 192v640a112 112 0 0 1-102.784 111.616L832 944H608a48 48 0 0 1-6.528-95.552l6.528-0.448H832a16 16 0 0 0 15.552-12.352L848 832V192a16 16 0 0 0-12.352-15.552L832 176H192a16 16 0 0 0-15.552 12.352L176 192v224a48 48 0 0 1-95.552 6.528L80 416V192a112 112 0 0 1 102.784-111.616L192 80h640z m-448 448c61.824 0 112 50.176 112 112v192A112 112 0 0 1 384 944H192A112 112 0 0 1 80 832v-192c0-61.824 50.176-112 112-112z m0 96H192a16 16 0 0 0-16 16v192c0 8.832 7.168 16 16 16h192a16 16 0 0 0 16-16v-192A16 16 0 0 0 384 624z" fill="#9CA3AF" p-id="2530"></path></svg>